<?xml version="1.0" encoding="utf-8"?>
<svg version="1.1" id="Layer_1" viewBox="0 0 512 512" xmlns="http://www.w3.org/2000/svg">
  <defs/>
  <rect x="50.772" y="59.324" style="fill:#D9DCDF;" width="410.455" height="171.023"/>
  <rect x="50.772" y="119.182" style="fill:#C6CACF;" width="410.455" height="34.205"/>
  <path style="fill:#A1A7AF;" d="M136.284,144.835v-42.756c0-4.722-3.829-8.551-8.551-8.551H16.568c-4.722,0-8.551,3.829-8.551,8.551&#10;&#9;v342.046c0,4.722,3.829,8.551,8.551,8.551h478.864c4.722,0,8.551-3.829,8.551-8.551V153.386c0-4.722-3.829-8.551-8.551-8.551&#10;&#9;H136.284z"/>
  <path style="fill:#8E959F;" d="M33.67,427.023V93.528H16.568c-4.722,0-8.551,3.829-8.551,8.551v342.046&#10;&#9;c0,4.722,3.829,8.551,8.551,8.551h478.864c4.722,0,8.551-3.829,8.551-8.551v-17.102H33.67z"/>
  <path d="M495.432,136.818h-26.188V59.324c0-4.428-3.589-8.017-8.017-8.017h-68.409c-4.427,0-8.017,3.588-8.017,8.017&#10;&#9;s3.589,8.017,8.017,8.017h60.392v69.478h-308.91v-34.739c0-9.136-7.432-16.568-16.568-16.568H58.789V67.34h299.825&#10;&#9;c4.427,0,8.017-3.588,8.017-8.017s-3.589-8.017-8.017-8.017H50.772c-4.427,0-8.017,3.588-8.017,8.017v26.188H16.568&#10;&#9;C7.432,85.511,0,92.944,0,102.079v94.063c0,4.428,3.589,8.017,8.017,8.017s8.017-3.588,8.017-8.017v-94.063&#10;&#9;c0-0.294,0.239-0.534,0.534-0.534h111.165c0.295,0,0.534,0.241,0.534,0.534v42.756c0,4.428,3.589,8.017,8.017,8.017h359.148&#10;&#9;c0.295,0,0.534,0.241,0.534,0.534v290.739c0,0.294-0.239,0.534-0.534,0.534H16.568c-0.295,0-0.534-0.241-0.534-0.534V230.347&#10;&#9;c0-4.428-3.589-8.017-8.017-8.017S0,225.918,0,230.347v213.779c0,9.136,7.432,16.568,16.568,16.568h478.864&#10;&#9;c9.136,0,16.568-7.432,16.568-16.568V153.386C512,144.25,504.568,136.818,495.432,136.818z"/>
</svg>